<svg id="Layer_1" data-name="Layer 1" xmlns="http://www.w3.org/2000/svg" viewBox="0 0 70 70"><defs><style>.cls-1{fill:#1bbc9b;}.cls-2{fill:#148d74;}</style></defs><title>devasst</title><path class="cls-1" d="M21.63,21.82,11.38,35,21.63,48.18a1.89,1.89,0,0,1,0,2.23l-3.21,4.12a1,1,0,0,1-1.74,0L2.37,36.12a1.89,1.89,0,0,1,0-2.23L16.69,15.47a1,1,0,0,1,1.74,0l3.21,4.12a1.89,1.89,0,0,1,0,2.23Z"/><path class="cls-1" d="M67.63,36.12,53.31,54.53a1,1,0,0,1-1.74,0l-3.21-4.12a1.89,1.89,0,0,1,0-2.23L58.62,35,48.37,21.82a1.89,1.89,0,0,1,0-2.23l3.21-4.12a1,1,0,0,1,1.74,0L67.63,33.88a1.89,1.89,0,0,1,0,2.23Z"/><path class="cls-2" d="M39.56,35.2,29.22,63.39a3.71,3.71,0,0,1-2,2.19,3.88,3.88,0,0,1-3,.07l-4.36-1.79a3.8,3.8,0,0,1-2.22-2.12,4,4,0,0,1-.1-3.1L27.78,30.49a16.18,16.18,0,0,0,5.44,3.57A15.64,15.64,0,0,0,39.56,35.2ZM27,56.89a2,2,0,0,0-1.16-2.6,1.89,1.89,0,0,0-2.52,1.12A2,2,0,0,0,24.43,58,1.89,1.89,0,0,0,27,56.89ZM51.74,14.73a11.35,11.35,0,0,1,.72,3.34,13.85,13.85,0,0,1-1.81,8.33,13.36,13.36,0,0,1-16.73,5.8,13.83,13.83,0,0,1-7.76-7.49,13.83,13.83,0,0,1-.38-10.77A13.05,13.05,0,0,1,32.95,6.2a14.41,14.41,0,0,1,3.62-1,10.35,10.35,0,0,1,3.61,0,1,1,0,0,1,.72,1.62l-6,8.54,2.88,6.46,6.79.67,1.59-2.39q1.49-2.24,2.76-4a9.88,9.88,0,0,1,1.52-1.9.88.88,0,0,1,.79,0A1.19,1.19,0,0,1,51.74,14.73Z"/></svg>