<svg id="Layer_1" data-name="Layer 1" xmlns="http://www.w3.org/2000/svg" viewBox="0 0 70 70"><defs><style>.cls-1{fill:#bb4385;}.cls-2{fill:#c9699d;}.cls-3{fill:#8c3264;}.cls-4{fill:#d68eb6;}.cls-5{fill:#5e2243;}</style></defs><title>grid</title><rect class="cls-1" x="1.25" y="1.25" width="67.5" height="7.94" rx="2.5" ry="2.5"/><rect class="cls-2" x="1.25" y="11.18" width="31.7" height="7.94" rx="2.5" ry="2.5"/><rect class="cls-3" x="37.05" y="11.18" width="31.7" height="7.94" rx="2.5" ry="2.5"/><rect class="cls-2" x="1.25" y="50.88" width="31.7" height="7.94" rx="2.5" ry="2.5"/><rect class="cls-3" x="37.05" y="50.88" width="31.7" height="7.94" rx="2.5" ry="2.5"/><rect class="cls-4" x="1.25" y="31.03" width="13.81" height="7.94" rx="2.5" ry="2.5"/><rect class="cls-5" x="19.15" y="31.03" width="13.81" height="7.94" rx="2.5" ry="2.5"/><rect class="cls-2" x="37.05" y="31.03" width="13.81" height="7.94" rx="2.5" ry="2.5"/><rect class="cls-3" x="54.94" y="31.03" width="13.81" height="7.94" rx="2.5" ry="2.5"/><rect class="cls-1" x="1.25" y="21.1" width="19.77" height="7.94" rx="2.5" ry="2.5"/><rect class="cls-5" x="25.11" y="21.1" width="19.77" height="7.94" rx="2.5" ry="2.5"/><rect class="cls-4" x="48.98" y="21.1" width="19.77" height="7.94" rx="2.5" ry="2.5"/><rect class="cls-1" x="1.25" y="40.96" width="19.77" height="7.94" rx="2.5" ry="2.5"/><rect class="cls-5" x="25.11" y="40.96" width="19.77" height="7.94" rx="2.5" ry="2.5"/><rect class="cls-4" x="48.98" y="40.96" width="19.77" height="7.94" rx="2.5" ry="2.5"/><rect class="cls-1" x="1.25" y="60.81" width="67.5" height="7.94" rx="2.5" ry="2.5"/></svg>