<svg id="Layer_1" data-name="Layer 1" xmlns="http://www.w3.org/2000/svg" viewBox="0 0 70 70"><defs><style>.cls-1{fill:#22a7f0;}.cls-2{fill:#7acaf6;}</style></defs><title>type</title><path class="cls-1" d="M17.13,13.45h8.32L42,56.55H33.49l-3.37-8.88H12.54L9,56.55H.51Zm4.21,11.43L15.55,39.67H27.08Z"/><path class="cls-2" d="M61.5,23.85h8V55.73h-8V52.36a15.68,15.68,0,0,1-4.7,3.21,13.15,13.15,0,0,1-5.11,1A14.18,14.18,0,0,1,41,51.76a16.72,16.72,0,0,1-4.51-11.91,17.13,17.13,0,0,1,4.36-12.1A13.88,13.88,0,0,1,51.46,23a13.47,13.47,0,0,1,5.39,1.08,14.69,14.69,0,0,1,4.65,3.25Zm-8.41,6.56A8.09,8.09,0,0,0,46.93,33a9.45,9.45,0,0,0-2.45,6.72,9.54,9.54,0,0,0,2.5,6.8,8.09,8.09,0,0,0,6.15,2.67,8.25,8.25,0,0,0,6.25-2.62,9.6,9.6,0,0,0,2.48-6.87A9.33,9.33,0,0,0,59.37,33,8.35,8.35,0,0,0,53.09,30.42Z"/></svg>